<svg height="200px" width="200px" version="1.1" id="_x36_" xmlns="http://www.w3.org/2000/svg" xmlns:xlink="http://www.w3.org/1999/xlink" viewBox="0 0 512 512" xml:space="preserve" fill="#000000"><g id="SVGRepo_bgCarrier" stroke-width="0"></g><g id="SVGRepo_tracerCarrier" stroke-linecap="round" stroke-linejoin="round"></g><g id="SVGRepo_iconCarrier"> <g> <g> <path style="fill:#E8EFEF;" d="M255.999,0.02C115.275,0.02,74.76,87.014,55.502,205.317C36.771,320.415,20.389,363.06,0,400.175 l65.695-16.238l2.267,62.631l70.232-37.108l15.86,64.951l49.837-51.04l52.107,69.269V0.02z"></path> <path style="fill:#DAE2E2;" d="M512,400.149l-65.684-16.185l-0.079,2.142l-2.202,60.462l-70.245-37.095l-15.884,64.937 l-49.801-51.019l-3.971,5.275l-48.136,63.948V0C405.702,0,437.26,87.014,456.486,205.35 C475.227,320.441,491.582,363.054,512,400.149z"></path> </g> <g> <g> <path style="fill:#DED320;" d="M182.294,183.155c0,21.146-17.142,38.281-38.281,38.281c-21.142,0-38.277-17.135-38.277-38.281 c0-21.139,17.135-38.275,38.277-38.275C165.151,144.881,182.294,162.016,182.294,183.155z"></path> <path style="fill:#BEC6C7;" d="M144.012,227.563c-12.244,0-23.344-4.98-31.387-13.027c-8.043-8.027-13.253-15.543-16.316-31.899 c-3.067-14.304,1.153-34.88,9.197-42.914c8.043-8.047,26.263-0.97,38.507-0.97c12.241,0,34.193,8.25,42.226,16.29 c8.047,8.033,9.829,14.049,5.885,25.805c-3.067,12.267-8.676,25.66-16.723,33.688 C167.367,222.583,156.253,227.563,144.012,227.563z"></path> <path style="fill:#E8EFEF;" d="M125.357,149.756c-11.697,6.54-19.622,19.042-19.622,33.399c0,21.146,17.135,38.281,38.277,38.281 c21.139,0,38.281-17.135,38.281-38.281c0-6.009-1.428-11.67-3.905-16.742L125.357,149.756z"></path> <path style="fill:#424848;" d="M163.16,178.051c0,10.57-8.578,19.14-19.144,19.14c-10.576,0-19.14-8.571-19.14-19.14 c0-10.57,8.565-19.14,19.14-19.14C154.582,158.911,163.16,167.481,163.16,178.051z"></path> <polygon style="fill:#E8EFEF;" points="126.966,115.197 105.506,139.724 212.817,173.444 169.883,109.063 "></polygon> <polygon style="fill:#F7F7F7;" points="126.966,115.197 99.372,139.724 212.817,173.444 169.883,109.063 "></polygon> </g> <g> <path style="fill:#DED320;" d="M326.113,183.155c0,21.146,17.142,38.281,38.281,38.281c21.139,0,38.268-17.135,38.268-38.281 c0-21.139-17.129-38.275-38.268-38.275C343.255,144.881,326.113,162.016,326.113,183.155z"></path> <path style="fill:#BEC6C7;" d="M364.394,227.563c12.24,0,23.341-4.98,31.387-13.027c8.034-8.027,13.249-15.543,16.317-31.899 c3.054-14.304-1.167-34.88-9.2-42.914c-8.047-8.047-26.264-0.97-38.504-0.97c-12.254,0-34.192,8.25-42.239,16.29 c-8.034,8.033-9.816,14.049-5.871,25.805c3.066,12.267,8.675,25.66,16.723,33.688 C341.053,222.583,352.14,227.563,364.394,227.563z"></path> <path style="fill:#E6E8C3;" d="M383.043,149.756c11.703,6.54,19.619,19.042,19.619,33.399c0,21.146-17.129,38.281-38.268,38.281 c-21.139,0-38.281-17.135-38.281-38.281c0-6.009,1.428-11.67,3.892-16.742L383.043,149.756z"></path> <path style="fill:#424848;" d="M345.247,178.051c0,10.57,8.571,19.14,19.133,19.14c10.576,0,19.148-8.571,19.148-19.14 c0-10.57-8.571-19.14-19.148-19.14C353.818,158.911,345.247,167.481,345.247,178.051z"></path> <polygon style="fill:#E8EFEF;" points="381.431,115.197 402.898,139.724 295.59,173.444 338.511,109.063 "></polygon> <polygon style="fill:#E8EFEF;" points="389.097,111.102 416.685,139.724 295.59,173.444 338.511,109.063 "></polygon> </g> </g> <g> <path style="fill:#E1DD75;" d="M255.999,175.096c-46.171,0-75.724,74.484-83.115,85.126c-7.378,10.641-5.53,38.307,14.783,31.925 c32.855-10.327,51.701,53.201,68.332,53.201V175.096z"></path> <path style="fill:#D0BE2C;" d="M255.999,175.096c46.171,0,75.71,74.484,83.102,85.126c7.378,10.641,5.53,38.307-14.77,31.925 c-32.855-10.327-51.714,53.201-68.332,53.201V175.096z"></path> </g> </g> </g></svg>