<svg fill="#40F99B" height="151px" width="151px" version="1.1" id="Capa_1" xmlns="http://www.w3.org/2000/svg" xmlns:xlink="http://www.w3.org/1999/xlink" viewBox="-147.92 -147.92 591.68 591.68" xml:space="preserve"><g id="SVGRepo_bgCarrier" stroke-width="0"></g><g id="SVGRepo_tracerCarrier" stroke-linecap="round" stroke-linejoin="round"></g><g id="SVGRepo_iconCarrier"> <g> <path d="M164.385,253.939h-6.342v-24.093c0-3.529-2.861-6.39-6.39-6.39h-19.698c-3.529,0-6.39,2.861-6.39,6.39l0,24.093h-6.342 c-2.439,0-4.665,1.388-5.738,3.578c-1.073,2.19-0.806,4.799,0.688,6.727l22.58,29.126c1.21,1.561,3.074,2.475,5.05,2.475 s3.84-0.914,5.05-2.475l22.58-29.125c1.494-1.927,1.761-4.537,0.688-6.727C169.05,255.327,166.824,253.939,164.385,253.939z"></path> <path d="M282.117,1.465c-7.477-3.567-16.431-0.396-19.996,7.082c-5.227,10.96-11.332,21.398-18.263,31.247 c-6.901-3.478-14.686-5.24-23.239-5.24c-17.095,0-34.485,6.93-55.443,15.99c-0.07,0.03-0.14,0.061-0.21,0.092 c-3.792,1.674-7.177,4.052-10.012,6.946c-4.918,0.64-9.765,2.029-14.273,4.11C103.394,78.942,80.129,98.09,33.657,105.327 c-13.495,2.099-24.288,11.779-27.498,24.66c-3.346,13.392,2.045,27.271,13.738,35.341c10.847,7.499,22.676,13.901,35.136,19.012 c6.642,2.737,14.092,4.193,21.502,4.193c0.566,0,1.132-0.008,1.699-0.025c4.211,3.495,9.371,5.954,15.102,7.014 c31.759,5.995,68.372,2.697,95.824-10.274c30.431-13.849,56.63-38.15,70.127-65.055c6.548-12.922,9.877-26.091,9.629-38.089 c-0.151-7.272-1.58-14.022-4.153-20.036c9.407-12.674,17.586-26.245,24.436-40.606C292.765,13.985,289.594,5.032,282.117,1.465z M232.496,106.693c-8.923,17.82-28.26,38.795-55.962,51.34c-22.209,10.568-52.716,12.729-77.712,7.995 c-1.062-0.189-1.823-0.776-1.969-1.505c-0.146-0.731,0.343-1.477,1.251-1.937c9.563-4.838,18.433-10.324,26.575-16.309 c-13.824,5.545-28.611,9.634-44.14,11.96c-1.32,0.199-2.661,0.297-4.003,0.297c-3.505,0-7.01-0.668-10.116-1.948 c-13.411-5.502-23.529-11.832-29.483-15.949c-1.331-0.918-1.959-2.227-1.667-3.396c0.292-1.172,1.446-2.028,2.999-2.27 c48.418-6.441,83.355-31.407,114.986-46.04c2.507-1.157,5.21-1.753,7.909-1.753c1.285,0,2.569,0.135,3.83,0.409 c9.992,2.185,20.563,3.417,31.546,3.554c-6.878-2.819-13.524-5.961-19.916-9.402c-0.67-0.361-1.024-1.086-0.923-1.859 c0.101-0.775,0.632-1.467,1.38-1.797c16.572-7.164,31.912-13.527,43.538-13.527c4.65,0,8.708,1.019,12.01,3.411 C240.42,73.742,241.665,88.64,232.496,106.693z"></path> </g> </g></svg>